<?xml version="1.0" encoding="utf-8"?>
<!-- Generator: Adobe Illustrator 24.0.0, SVG Export Plug-In . SVG Version: 6.00 Build 0)  -->
<svg version="1.2" baseProfile="tiny" id="Layer_1" xmlns="http://www.w3.org/2000/svg" xmlns:xlink="http://www.w3.org/1999/xlink"
	 x="0px" y="0px" viewBox="0 0 144 123.8" xml:space="preserve">
<path fill="#000001" d="M139.5,106V89.8H136v6.5h-7.2v-6.5h-3.6V106h3.6v-6.4h7.2v6.4H139.5z M114.4,106h3.6V93h4.9v-3.2
	c-4.7,0-8.7,0-13.5,0V93h4.9V106z M103.9,89.8v9.1c0,2.4-0.9,4.1-3.3,4.3c-2.6,0.1-4.3-1.4-4.3-4.3v-9.1h-3.6v9.1
	c0,5.2,3.6,7.7,7.8,7.5c4.3-0.1,6.9-2.7,6.9-7.5v-9.1H103.9z M86.7,97.9c0,3-2.1,5.2-5.2,5.2c-3.1,0-5.2-2.2-5.2-5.2
	c0-2.9,2.1-5.3,5.2-5.3C84.6,92.6,86.7,94.9,86.7,97.9z M90.2,97.9c0-5.3-3.6-8.5-8.8-8.5c-5.2,0-8.8,3.2-8.8,8.5
	c0,5.3,3.6,8.5,8.8,8.5C86.7,106.4,90.2,103.1,90.2,97.9z M60.8,89.8h-4.2V90l6.2,9.6v6.4h3.6v-6.4L73,90v-0.2h-4.1l-4.1,6.4
	L60.8,89.8z M41,89.8h-4.2V90l6.2,9.6v6.4h3.6v-6.4l6.5-9.6v-0.2h-4.1l-4.1,6.4L41,89.8z M27.8,106h3.6V93h4.9v-3.2
	c-4.7,0-8.7,0-13.5,0V93h4.9V106z M20.7,106V89.8h-3.6V106H20.7z M12.7,101.5c-1,1-2.7,1.6-4,1.6c-3.8,0-5.1-2.7-5.1-5
	c0-2.4,1.4-5.2,5.1-5.2c1.3,0,2.7,0.4,3.7,1.3l2.3-2.2c-1.7-1.6-3.7-2.5-6-2.5c-6,0-8.7,4.4-8.7,8.6c0,4.4,2.5,8.4,8.7,8.4
	c2.4,0,4.6-0.7,6.2-2.4L12.7,101.5z"/>
<path fill="#000001" d="M134.2,116.7l-2.5-3.8h-2.6v0.1l3.6,5.2l-3.6,5.3v0.1h2.6l2.5-3.7l2.5,3.7h2.6v-0.1l-3.6-5.3l3.6-5.2v-0.1
	h-2.6L134.2,116.7z M111.8,123.5v-10.6h-2.4v10.6H111.8z M87.5,114.9c1.1,0,1.6,0.9,1.6,1.6c0,0.7-0.5,1.5-1.6,1.5h-2.7v-3.1H87.5z
	 M91.9,123.3l-2.9-3.5c2-0.7,2.4-2,2.5-3.3c0-1.9-1.4-3.6-3.9-3.6c-1.7,0-3.3,0-5,0v10.6h2.4V120h1.7l2.7,3.5h2.6V123.3z
	 M59.4,123.5h2.4V115H65v-2.1c-3.1,0-5.7,0-8.8,0v2.1h3.2V123.5z M36.6,119.6H33l1.8-4.3L36.6,119.6z M38.3,123.5h2.6l-4.8-10.6
	h-2.6l-4.8,10.6h2.6l0.8-1.8h5.5L38.3,123.5z M9.2,123.5h2.4v-10.6H8.9L5.8,117l-3.1-4.1c-0.9,0-1.8,0-2.7,0v10.6h2.4v-7.4l3.2,4.2
	H6l3.3-4.1V123.5z"/>
<path fill-rule="evenodd" fill="#BE1F48" d="M101.7,53.2c2.3-4,0.9-9-3-11.3c-4-2.3-9-0.9-11.3,3c-2.3,4-0.9,9,3,11.3
	C94.4,58.5,99.5,57.1,101.7,53.2"/>
<path fill-rule="evenodd" fill="#000001" d="M78.2,12.4c2.3-4,0.9-9-3-11.3c-4-2.3-9-0.9-11.3,3c-2.3,4-0.9,9,3,11.3
	C70.9,17.8,75.9,16.4,78.2,12.4"/>
<path fill-rule="evenodd" fill="#FFC10E" d="M54.7,53.2c2.3-4,0.9-9-3-11.3c-4-2.3-9-0.9-11.3,3c-2.3,4-0.9,9,3,11.3
	C47.3,58.5,52.4,57.1,54.7,53.2"/>
<path fill-rule="evenodd" fill="#FFC10E" d="M39.2,21.7l0,0.2c0,3.1,1.7,5.9,4.3,7.3L58,37.5c4.4,2.5,4.7,3.2,4.7,8.3v16.8h0
	c0,4.6,3.7,8.3,8.3,8.3c0.7,0,1.5-0.1,2.1-0.3L71,47.7c-0.3-3-0.8-5.8-2-8.2c-1.6-3.5-4.4-6.3-9.5-8.4L39.2,21.7z"/>
<path fill-rule="evenodd" fill="#000001" d="M98.8,14.8c-1.2-0.8-2.7-1.2-4.3-1.2c-1.5,0-2.9,0.4-4.2,1.1l-14.3,8.2
	c-4.8,2.8-5.3,2.8-10.1,0l-14.3-8.3l0,0c-1.2-0.7-2.6-1.1-4.1-1.1c-3.9,0-7.2,2.7-8.1,6.3l17.6,7.9c4,2,7.7,3.6,11.5,3.9
	c3.8,0.3,7.7-0.7,12.1-4L98.8,14.8z"/>
<path fill-rule="evenodd" fill="#BE1F48" d="M98.7,29.1c2.5-1.4,4.1-4.1,4.1-7.2c0-2.3-1-4.4-2.5-5.9l-18.1,13
	c-2.7,1.9-5,3.9-6.7,6.3c-2.2,3.1-3.2,7-2.6,12.4L75,69.9c2.6-1.4,4.3-4.1,4.3-7.3V45.9c0-5.2,0.3-5.8,4.8-8.4L98.7,29.1L98.7,29.1z
	"/>
<g>
	<path d="M144,114.2c0,0.9-0.7,1.6-1.6,1.6c-0.9,0-1.6-0.7-1.6-1.6c0-0.9,0.7-1.5,1.6-1.5C143.3,112.6,144,113.3,144,114.2z
		 M141.2,114.2c0,0.7,0.5,1.2,1.2,1.2c0.7,0,1.2-0.5,1.2-1.2c0-0.7-0.5-1.2-1.2-1.2S141.2,113.5,141.2,114.2z M142.2,115h-0.4v-1.5
		c0.1,0,0.3,0,0.6,0c0.3,0,0.4,0,0.5,0.1c0.1,0.1,0.2,0.2,0.2,0.3c0,0.2-0.1,0.3-0.3,0.4v0c0.1,0.1,0.2,0.2,0.3,0.4
		c0,0.2,0.1,0.3,0.1,0.4h-0.4c0-0.1-0.1-0.2-0.1-0.4c0-0.2-0.1-0.2-0.3-0.2h-0.2V115z M142.2,114.1h0.2c0.2,0,0.4-0.1,0.4-0.2
		c0-0.1-0.1-0.2-0.3-0.2c-0.1,0-0.2,0-0.2,0V114.1z"/>
</g>
</svg>
