<?xml version="1.0" encoding="utf-8"?>
<!-- Generator: Adobe Illustrator 24.0.0, SVG Export Plug-In . SVG Version: 6.00 Build 0)  -->
<svg version="1.2" baseProfile="tiny" id="Layer_1" xmlns="http://www.w3.org/2000/svg" xmlns:xlink="http://www.w3.org/1999/xlink"
	 x="0px" y="0px" viewBox="0 0 144 36" xml:space="preserve">
<path fill="#000001" d="M140.8,17.7V6h-2.6v4.7H133V6h-2.6v11.6h2.6v-4.6h5.2v4.6H140.8z M122.7,17.7h2.6V8.3h3.5V6
	c-3.4,0-6.3,0-9.7,0v2.3h3.5V17.7z M115.2,6v6.5c0,1.8-0.6,3-2.4,3.1c-1.9,0.1-3.1-1-3.1-3.1V6h-2.6v6.5c0,3.8,2.6,5.5,5.6,5.4
	c3.1-0.1,5-1.9,5-5.4V6H115.2z M102.8,11.8c0,2.2-1.5,3.8-3.7,3.8c-2.2,0-3.7-1.6-3.7-3.8c0-2.1,1.5-3.8,3.7-3.8
	C101.3,8.1,102.8,9.7,102.8,11.8z M105.4,11.8c0-3.8-2.6-6.1-6.3-6.1c-3.7,0-6.3,2.3-6.3,6.1c0,3.8,2.6,6.1,6.3,6.1
	C102.8,17.9,105.4,15.6,105.4,11.8z M84.2,6h-3v0.1l4.5,6.9v4.6h2.6V13L93,6.2V6h-3L87,10.6L84.2,6z M69.9,6h-3v0.1l4.5,6.9v4.6H74
	V13l4.7-6.9V6h-3l-2.9,4.6L69.9,6z M60.5,17.7H63V8.3h3.5V6c-3.4,0-6.3,0-9.7,0v2.3h3.5V17.7z M55.3,17.7V6h-2.6v11.6H55.3z
	 M49.6,14.5c-0.7,0.7-1.9,1.1-2.9,1.1c-2.7,0-3.6-1.9-3.7-3.6c0-1.7,1-3.7,3.7-3.7c0.9,0,1.9,0.3,2.6,1L51,7.5
	c-1.2-1.2-2.7-1.8-4.3-1.8c-4.3,0-6.2,3.2-6.2,6.2c0,3.2,1.8,6,6.2,6c1.7,0,3.3-0.5,4.5-1.7L49.6,14.5z"/>
<path fill="#000001" d="M137,25.3l-1.8-2.7h-1.9v0.1l2.6,3.7l-2.6,3.8v0.1h1.9l1.8-2.7l1.8,2.7h1.9v-0.1l-2.6-3.8l2.6-3.7v-0.1h-1.9
	L137,25.3z M120.9,30.3v-7.6h-1.7v7.6H120.9z M103.4,24.1c0.8,0,1.1,0.6,1.1,1.2c0,0.5-0.3,1.1-1.1,1.1h-1.9v-2.2H103.4z
	 M106.5,30.1l-2.1-2.5c1.5-0.5,1.8-1.4,1.8-2.4c0-1.3-1-2.6-2.8-2.6c-1.2,0-2.4,0-3.6,0v7.6h1.7v-2.5h1.2l2,2.5h1.9V30.1z
	 M83.2,30.3h1.7v-6.1h2.3v-1.5c-2.2,0-4.1,0-6.3,0v1.5h2.3V30.3z M66.8,27.4h-2.6l1.3-3.1L66.8,27.4z M68,30.3h1.8l-3.4-7.6h-1.9
	l-3.4,7.6H63l0.6-1.3h3.9L68,30.3z M47.1,30.3h1.7v-7.6h-1.9l-2.2,2.9l-2.2-2.9c-0.6,0-1.3,0-2,0v7.6h1.7v-5.3l2.3,3h0.3l2.4-3V30.3
	z"/>
<path fill-rule="evenodd" fill="#BE1F48" d="M31.7,27c1.2-2,0.5-4.6-1.5-5.8c-2-1.2-4.6-0.5-5.8,1.5c-1.2,2-0.5,4.6,1.5,5.8
	C28,29.7,30.6,29,31.7,27"/>
<path fill-rule="evenodd" fill="#000001" d="M19.8,6.3c1.2-2,0.5-4.6-1.5-5.8c-2-1.2-4.6-0.5-5.8,1.5c-1.2,2-0.5,4.6,1.5,5.8
	C16.1,9,18.6,8.3,19.8,6.3"/>
<path fill-rule="evenodd" fill="#FFC10E" d="M7.9,27c1.2-2,0.5-4.6-1.5-5.8c-2-1.2-4.6-0.5-5.8,1.5c-1.2,2-0.5,4.6,1.5,5.8
	C4.1,29.7,6.7,29,7.9,27"/>
<path fill-rule="evenodd" fill="#FFC10E" d="M0,11L0,11c0,1.7,0.9,3.1,2.2,3.8L9.5,19c2.2,1.3,2.4,1.6,2.4,4.2v8.6h0
	c0,2.3,1.9,4.2,4.2,4.2c0.4,0,0.7,0,1.1-0.1l-1.1-11.6c-0.1-1.5-0.4-2.9-1-4.2c-0.8-1.8-2.2-3.2-4.8-4.3L0,11z"/>
<path fill-rule="evenodd" fill="#000001" d="M30.3,7.5c-0.6-0.4-1.4-0.6-2.2-0.6c-0.8,0-1.5,0.2-2.1,0.6l-7.2,4.2
	c-2.4,1.4-2.7,1.4-5.1,0L6.3,7.5l0,0C5.7,7.1,5,6.9,4.2,6.9c-2,0-3.6,1.4-4.1,3.2l8.9,4c2.1,1,3.9,1.8,5.8,2c1.9,0.2,3.9-0.3,6.1-2
	L30.3,7.5z"/>
<path fill-rule="evenodd" fill="#BE1F48" d="M30.2,14.8c1.3-0.7,2.1-2.1,2.1-3.6c0-1.2-0.5-2.3-1.3-3l-9.2,6.6c-1.4,1-2.5,2-3.4,3.2
	c-1.1,1.6-1.6,3.5-1.3,6.3l1.1,11.3c1.3-0.7,2.2-2.1,2.2-3.7v-8.5c0-2.6,0.2-2.9,2.4-4.2L30.2,14.8L30.2,14.8z"/>
<g>
	<path d="M144,23.6c0,0.6-0.5,1.1-1.1,1.1c-0.6,0-1.1-0.5-1.1-1.1c0-0.6,0.5-1.1,1.1-1.1C143.5,22.5,144,22.9,144,23.6z M142,23.6
		c0,0.5,0.4,0.9,0.9,0.9c0.5,0,0.8-0.4,0.8-0.9c0-0.5-0.4-0.9-0.8-0.9C142.4,22.7,142,23.1,142,23.6z M142.7,24.1h-0.3V23
		c0.1,0,0.2,0,0.4,0c0.2,0,0.3,0,0.4,0.1c0.1,0,0.1,0.1,0.1,0.2c0,0.1-0.1,0.2-0.2,0.3v0c0.1,0,0.2,0.1,0.2,0.3
		c0,0.2,0.1,0.2,0.1,0.3h-0.3c0,0-0.1-0.1-0.1-0.3c0-0.1-0.1-0.2-0.2-0.2h-0.1V24.1z M142.7,23.5h0.1c0.1,0,0.3,0,0.3-0.2
		c0-0.1-0.1-0.2-0.2-0.2c-0.1,0-0.1,0-0.1,0V23.5z"/>
</g>
</svg>
